<?xml version="1.0" encoding="UTF-8" standalone="no"?>
<!DOCTYPE svg PUBLIC "-//W3C//DTD SVG 1.1//EN" "http://www.w3.org/Graphics/SVG/1.1/DTD/svg11.dtd">
<svg width="100%" height="100%" viewBox="0 0 16 16" version="1.1" xmlns="http://www.w3.org/2000/svg" xmlns:xlink="http://www.w3.org/1999/xlink" xml:space="preserve" xmlns:serif="http://www.serif.com/" style="fill-rule:evenodd;clip-rule:evenodd;stroke-linejoin:round;stroke-miterlimit:2;">
    <path d="M16,1.236L16,14.764C16,15.446 15.446,16 14.764,16L1.236,16C0.554,16 0,15.446 0,14.764L0,1.236C0,0.554 0.554,0 1.236,0L14.764,0C15.446,0 16,0.554 16,1.236Z" style="fill:rgb(235,235,235);"/>
    <g transform="matrix(0.842105,0,0,1,1.684211,0)">
        <rect x="-2" y="0" width="19" height="16" style="fill:rgb(235,235,235);"/>
    </g>
    <g transform="matrix(0.875,0,0,0.875,1,1)">
        <rect x="2" y="2" width="2" height="2" style="fill-rule:nonzero;"/>
    </g>
    <g transform="matrix(0.875,0,0,0.875,1,1)">
        <path d="M6,0L6,6L0,6L0,0L6,0ZM5,1L1,1L1,5L5,5L5,1ZM4,12L2,12L2,14L4,14L4,12Z" style="fill-rule:nonzero;"/>
    </g>
    <g transform="matrix(0.875,0,0,0.875,1,1)">
        <path d="M6,10L6,16L0,16L0,10L6,10ZM1,11L1,15L5,15L5,11L1,11ZM12,2L14,2L14,4L12,4L12,2Z" style="fill-rule:nonzero;"/>
    </g>
    <g transform="matrix(0.875,0,0,0.875,1,1)">
        <path d="M10,0L10,6L16,6L16,0L10,0ZM15,1L15,5L11,5L11,1L15,1ZM8,1L8,0L9,0L9,2L8,2L8,4L7,4L7,1L8,1ZM8,6L8,4L9,4L9,6L8,6ZM6,8L6,7L7,7L7,6L8,6L8,8L9,8L9,7L14,7L14,8L10,8L10,9L7,9L7,8L6,8ZM6,8L6,9L2,9L2,8L1,8L1,9L0,9L0,7L3,7L3,8L6,8ZM16,9L15,9L15,7L16,7L16,9ZM15,9L14,9L14,11L16,11L16,10L15,10L15,9ZM11,9L13,9L13,10L12,10L12,11L11,11L11,9ZM13,12L13,11L12,11L12,12L11,12L11,13L9,13L9,14L12,14L12,12L13,12ZM13,12L16,12L16,13L14,13L14,14L13,14L13,12ZM9,11L9,12L10,12L10,10L7,10L7,11L9,11Z" style="fill-rule:nonzero;"/>
    </g>
    <g transform="matrix(0.875,0,0,0.875,1,1)">
        <path d="M7,12L8,12L8,15L12,15L12,16L7,16L7,12ZM16,14L16,16L13,16L13,15L15,15L15,14L16,14Z" style="fill-rule:nonzero;"/>
    </g>
</svg>
